<?xml version="1.0" encoding="utf-8"?>
<!-- Generator: Adobe Illustrator 22.1.0, SVG Export Plug-In . SVG Version: 6.00 Build 0)  -->
<svg version="1.1" id="Camada_1" xmlns="http://www.w3.org/2000/svg" xmlns:xlink="http://www.w3.org/1999/xlink" x="0px" y="0px"
	 viewBox="0 0 452 710.5" style="enable-background:new 0 0 452 710.5;" xml:space="preserve">
<style type="text/css">
	.st0{fill:#FFFFFF;}
</style>
<g>
	<path class="st0" d="M245.4,602.4c0-11.8,0-23.6,0-35.7c4.4,0,8.5,0,12.8,0c0,27,0,54.1,0,81.6c-3.5,0-6.9,0.3-10.3-0.1
		c-1.1-0.1-2.5-1.8-3-3c-3.9-10.1-7.7-20.2-11.5-30.4c-0.3-0.7-0.6-1.4-1.6-2.1c0,11.6,0,23.3,0,35.3c-4.7,0-9,0-13.7,0
		c0-27,0-54,0-81.6c3.7,0,7.4-0.2,11,0.1c1,0.1,2.2,1.7,2.7,2.9c4,10.3,7.9,20.7,11.8,31.1c0.3,0.7,0.6,1.3,1,2
		C244.9,602.5,245.1,602.4,245.4,602.4z"/>
	<path class="st0" d="M171.6,561.4c3.4,0.5,6.9,0.7,10.3,1.6c0.9,0.2,1.7,2.5,1.7,3.8c0.1,20.4,0.1,40.9,0.1,61.3
		c0,1.2-0.1,2.5,0.1,3.7c0.4,3.6,3,6.1,6.5,6.2c3.6,0.1,6-1.8,6.9-5.3c0.4-1.7,0.4-3.5,0.4-5.3c0-19.3,0-38.7,0-58
		c0-1.3,0-2.7,0-4.4c4.6,0.6,8.8,1.1,13.1,1.7c0.1,0.9,0.3,1.5,0.3,2.2c0,20.2,0.1,40.3,0,60.5c-0.1,14.9-12.9,24.2-26.7,19.5
		c-8.1-2.8-12.8-8.8-12.9-17.3c-0.3-23-0.1-46.1-0.1-69.1C171.2,562.3,171.4,562.1,171.6,561.4z"/>
	<path class="st0" d="M126.1,547.2c13.2,4.2,26,8.3,38.7,12.5c0.8,0.3,1.8,1.6,1.8,2.6c0.2,3.4,0.1,6.8,0.1,10.8
		c-8.9-2.7-17.4-5.2-26.5-7.9c0,8.2-0.1,15.9,0,23.7c0.1,7.2-1.4,5.6,6,7.6c0.4,0.1,0.8,0.2,1.2,0.3c10,2.3,10,2.3,8.9,13.3
		c-5.2-1.1-10.3-2.2-15.9-3.3c0,14.5,0,28.7,0,43.2c-5,0-9.5,0-14.3,0C126.1,615.7,126.1,581.8,126.1,547.2z"/>
	<path class="st0" d="M327.2,647.9c-4.6,0-9.1,0-14,0c-0.1-1.2-0.3-2.4-0.3-3.5c0-28.8,0-57.6-0.1-86.4c0-2.4,0.6-3.8,2.9-4.7
		c3.7-1.6,7.3-3.5,11.4-5.5C327.2,581.5,327.2,614.6,327.2,647.9z"/>
	<path class="st0" d="M219.3,560.8c2.6-6.6,6.1-12.7,4.3-20.2c-7.7,0.7-13-2.6-15.9-9.4c-0.7-1.7-0.6-4.3,0.3-5.9
		c4-7.4,10.7-11.2,18.9-12.2c3.4-0.4,7-0.4,10.4-0.1c5,0.4,9.5,4.1,10.6,8.4c1.3,4.9-0.7,8.4-4.9,11.1c-0.8,0.5-1.3,2.2-1.3,3.4
		c-0.1,8.2-0.1,16.4-0.1,25C234.2,560.8,227,560.8,219.3,560.8z M227.3,522c-3.5,4.2-4,8.8-1.9,13.5c2.1,5,2.2,10.1,1.1,15.2
		c-0.5,2.3-1.4,4.6-2.1,6.9c4.8,0,9.3,0,14.1,0c0-7,0-13.6,0-20.3C238.4,529.5,235.2,525.1,227.3,522z M226.8,516.2
		c-7.2,1.5-12.1,4.4-15.5,9.6c-0.7,1-1.2,2.6-1,3.7c1,4.8,6.4,8.2,11.8,7.5C220.7,529.8,221.3,522.9,226.8,516.2z M231.1,517.9
		c3.7,3.4,7.5,6.8,11.5,10.5c2.7-1.6,3.5-4.6,1.3-7.9C240.9,515.7,235.7,514.7,231.1,517.9z"/>
	<path class="st0" d="M215.9,658.6c0.9,0.1,1.8,0.1,2.8,0.3c4.9,1,9.9,2,15.1,3.1c-0.4,1.9-0.8,3.4-1.1,5c-0.8,3.5,0.1,6.4,2.7,9
		c2.3,2.3,4.5,4.8,6.1,7.6c4,7,3.4,14.3-1.2,20c-5,6.1-12.7,8.4-20.8,6c-7.6-2.3-12-7.5-13-15.3c-0.4-3.4,0.3-7,0.5-11
		c3.9,0.6,7,1.1,10.4,1.7c-0.2,1.6-0.5,3-0.5,4.3c0.1,3.1,1.2,5.4,4.7,5.6c2.8,0.1,5.6-2.9,4.8-5.9c-0.8-2.8-2.3-5.6-4.3-7.7
		C216.1,675.1,213.7,667.2,215.9,658.6z M218.8,662.4c-1.1,6.7,0.7,11.4,5,16.3c2.4,2.7,4.5,5.9,5.5,9.3c1.4,4.5-2.3,9.4-6.7,10
		c-4.5,0.7-8.3-2.5-9-7.5c-0.1-0.9-0.2-1.8-0.3-3c-1.3,0-2.3,0-3.3,0c-1.7,6.5,0.4,13.1,5.2,16.6c5.3,3.9,13.7,4.1,19,0.6
		c8.3-5.7,9-15.9,1.1-24.1c-4.4-4.6-8-9.1-5.2-16c-3.1-0.7-5.6-1.3-8.2-1.8C221,662.5,219.9,662.5,218.8,662.4z"/>
	<path class="st0" d="M117.1,411.6c0.2-0.1,0.4-0.3,0.5-0.4c-0.2,0.1-0.4,0.2-0.5,0.3C117.1,411.4,117.1,411.6,117.1,411.6z"/>
	<path class="st0" d="M305.9,577c0-2.8-0.9-5.7-2.2-8.2c-4.2-8.2-13.3-12.2-22.2-10c-9,2.1-15.1,9.6-15.2,19.1
		c-0.1,22.5,0,45,0,67.5c0,0.8,0.2,1.6,0.3,2.3c4.7,0,9.1,0,13.9,0c0-10.3,0-20.2,0-30c4.1,0,7.7,0,11.7,0c0,10.2,0,20.2,0,30.2
		c4.7,0,9.1,0,13.8,0C305.9,623.9,306,600.5,305.9,577z M292,605c-4.1,0-7.8,0-11.9,0c0-9.1-0.2-18,0.1-27c0.1-3.2,2.7-5.2,5.9-5.1
		c3.4,0.1,5.7,2.2,5.8,5.7C292.1,587.3,292,595.9,292,605z"/>
	
		<rect x="271.3" y="460.1" transform="matrix(0.7849 -0.6196 0.6196 0.7849 -229.0579 270.4397)" class="st0" width="7.5" height="10"/>
	
		<rect x="225.5" y="449.5" transform="matrix(0.6812 -0.7321 0.7321 0.6812 -259.2825 313.6986)" class="st0" width="10.1" height="10.1"/>
	
		<rect x="202.3" y="453" transform="matrix(0.6343 -0.7731 0.7731 0.6343 -277.2531 327.3125)" class="st0" width="10.1" height="7.5"/>
	
		<rect x="180.9" y="459.6" transform="matrix(0.6343 -0.7731 0.7731 0.6343 -290.1847 313.1983)" class="st0" width="10" height="7.5"/>
	
		<rect x="250" y="453.1" transform="matrix(0.7849 -0.6196 0.6196 0.7849 -229.2984 255.7984)" class="st0" width="7.5" height="10.1"/>
	<path class="st0" d="M451.9,461.8c-0.8-1.3-3.5-0.3-4.6,0.1c-3.4,1.2-6.7,2.8-9.9,4.3c-5.1,2.3-10.3,4.6-15.5,6.6
		c-20.7,7.7-41.9,11.9-64.1,8.1c-10-1.7-19.4-5.2-28.4-10.9c7.4,1.6,14.3,3.1,21.9,4.7c-0.2-3.9-0.4-6.7-0.5-9.4
		c2.6-1.2,6.2,3.2,7.8-1.5c1-2.8,1.5-5.7,2.2-8.3c3.6-1.2,7.8,3.7,10.6-0.5c2-3.1,2.3-7.4,3.5-11.7c2.4-0.1,5.7-0.5,8.9-0.4
		c3.7,0.1,5.1-2,5-5c-0.1-2.9-1.1-5.7-1.6-8.5c3.7-0.7,7.6-1.6,11.5-2c3.8-0.4,4.6-2.7,4-5.7c-0.6-2.8-2-5.5-3.1-8.3
		c3.6-0.8,7.1-1.7,10.8-2.3c2.7-0.4,3.6-2,2.9-4.3c-1.2-3.6-2.7-7.1-4.1-10.6c4.9-1.4,10.4-3,17.1-5c-2.7-5.5-5.1-10.3-7.5-15.3
		c4-2.4,8.9-5.4,13.9-8.2c2.5-1.4,3.3-3.5,2.1-5.8c-1.9-3.4-4.3-6.6-6.6-10.1c2.6-1.3,6.1-3.2,9.7-4.8c2-0.9,2.9-2.3,1.8-4.2
		c-2.1-3.7-4.4-7.2-6.7-10.8c3.7-2.9,7.9-6.3,12-9.6c-2.6-6.2-6.8-9.9-12.8-12c3.3-2.8,6.3-5,9-7.7c2.7-2.6,5.1-5.6,8.6-9.4
		c-6-2.4-11.2-4.5-16.1-6.4c2.2-3,5-6.2,7.1-9.8c2.9-5,2.1-7.2-3.3-9.4c-3.2-1.3-6.7-1.8-10.2-2.7c4.4-6.2,8.8-12.4,13.9-19.8
		c-6.8-1.4-12.4-2.6-17.7-3.7c3.1-6.8,6.4-14.2,10.3-22.7c-7.7-0.5-13.9-0.9-20-1.3c3-6,6.1-12.4,9.3-18.8c-0.2-0.5-0.4-1-0.7-1.6
		c-7.2-0.4-14.5-0.7-21.7-1.1c2.7-5.5,5.8-11.6,8.9-17.8c-8.4-3.7-16.3-4.1-24.4-1.3c1.1-7.3,2.1-14.4,3.3-22.6
		c-7.7,1.6-14.2,2.9-20.7,4.2c0.4-6,0.9-12,1.3-18.1c-7.7-1.2-14,0.7-19.7,4.1c-0.5-7.8-1.1-15.3-1.7-24c-6.5,3.2-11.7,5.8-17.5,8.7
		v-20.3c-7.6,3.6-14,6.7-20.4,9.8c-0.7-4-1.6-8.4-2.1-12.9c-0.3-2.5-1.5-3-3.8-3.1c-6.5-0.4-12,1.9-17.3,6.4
		c-0.6-6-1.1-11.2-1.6-16.7c-8.7,1.9-15.6,6.3-21.7,12.9c-1.7-6-3.3-11.6-5.1-18c-5.3,3.3-9.9,6.2-14.7,9.1
		c-0.9-10.5-1.6-20.9-2.7-31.3c-2.1-19.2-4.3-38.4-6.6-57.6c-0.2-1.5-0.5-3-0.9-4.5c-0.2-0.9-0.6-2.4-1.6-2.9
		c-1.8-0.9-3.1,6.4-3.2,7.5c-3.6,28-7.1,56-10.6,84.1c-0.2,1.4-0.3,2.7-0.5,4c-4.9-2.9-9.2-5.6-14-8.5c-1.7,6.5-3.2,12-4.8,17.9
		c-5.9-6.7-12.7-11.1-21.5-13.1c-0.5,5.6-1,10.8-1.6,16.7c-6-5.5-12.5-7.6-20.3-6.1c-0.9,5.3-1.8,10.6-2.6,15.4
		c-6.4-3.2-12.7-6.3-20-10c-0.4,7.6-0.6,13.8-0.9,19.8c-5.3-2.6-10.4-5.2-16.7-8.3c-0.6,8.8-1.1,16.3-1.6,24.1
		c-5.8-3.8-12-5.7-19.5-4.3c0.4,6.1,0.7,12.1,1,17.9c-6.4-1.4-12.7-2.7-20.3-4.3c1,8.2,1.9,15.3,2.9,22.6c-8.2-3-15.9-2.5-23.9,1.1
		c3,6.3,5.9,12.5,9.1,19.2c-8-2.2-15.1-2.2-22.6,1.2c3.1,6.6,6.1,12.9,8.9,18.8c-6.3,0.4-12.5,0.8-19.7,1.3c3.8,8.6,7,15.9,9.9,22.6
		c-5.4,1.1-11,2.3-17.5,3.6c5,7.4,9.2,13.7,13.1,19.5c-4.2,1.5-8.3,2.9-12.2,4.6c-2.5,1.1-3.2,3.4-1.8,5.8c2.5,4.2,5.2,8.2,7.6,11.9
		c-4.6,1.9-9.8,4-14.9,6l-0.9,2.4c5.3,5.2,10.7,10.4,15.8,15.5c-4.7,1.5-8.9,5.3-11.3,11.5c4.2,3.5,8.3,6.9,11.5,9.6
		c-2.9,4.5-5.5,8.6-8.4,13c5.2,2.8,9.4,5,13.3,7.1c-2.2,2.5-4.6,4.5-6.1,7.1c-2.7,4.8-2.3,6.4,2.3,9.4c4.2,2.8,8.6,5.2,13.3,8
		c-4.8,3.7-7.2,8.6-7.3,15c5.5,1.7,10.8,3.3,15.4,4.7c-1.5,3.5-3.2,6.6-4.2,9.9c-0.9,2.7,0,4.7,3.4,5.2c3.4,0.5,6.8,1.5,10.5,2.3
		c-0.9,1.4-1.7,2.4-2.2,3.5c-0.6,1.2-1.1,2.5-1.3,3.9c-0.7,4.9-0.1,5.7,4.6,6.7c3.5,0.8,7.1,1.4,10.5,2c-0.8,2.5-1.8,4.5-2,6.6
		c-0.5,4.8,0.9,6.4,5.6,6.9c2.9,0.3,5.9,0.4,8.7,0.6c0.3,2.7,0.2,5,0.7,7.3c1.4,6.1,2,6.3,8.1,5.3c1.4-0.2,2.9-0.4,3.8-0.5
		c1.1,4,2.1,7.5,3.1,11c2.8-0.5,4.8-0.8,6.8-1.2c-0.2,3.3-0.4,6.2-0.5,9.4c4.7-0.6,8.7-1.2,12.8-1.8c-0.4,0.8-0.9,1.1-1.3,1.4
		c-0.7,0.4-1.5,0.7-2.2,1.1c-18.3,8.5-37.5,9.5-57.2,6.4c-12.6-2-24.9-5.8-36.7-10.5c-3.4-1.3-6.8-2.8-10.1-4.3
		c-3.2-1.4-6.4-3-9.8-3.9c-0.9-0.2-2.2-0.5-2.1,0.8c0,0.2,0.1,0.3,0.1,0.5c1.4,3.1,4.1,5.1,6.6,7.2c2.1,1.8,4.3,3.6,6.6,5.2
		c4.4,3.2,9,6.2,13.8,8.7c9.4,5,19.6,8.6,30.1,10.6c9.9,1.9,20,2.4,30,1.8c4.8-0.3,9.6-1,15.2-1.6c-1.3,1.1-1.9,1.6-2.5,2.1
		c-19.1,14.9-40.8,23.9-64.1,29.7c-3,0.7-6.1,1.4-9.1,2.1c-2,0.5-4.8,1.1-6.4,2.5c-2.1,1.8,3.2,3.1,4.2,3.2
		c4.7,0.6,9.7,0.5,14.4,0.4c6-0.1,11.9-0.5,17.8-1.3c11.7-1.6,23.2-4.7,34.2-9.2c6.2-2.6,12.3-5.7,18.1-9.2c1-0.6,2-1,4.1-2
		C95,540,86,568.1,86.9,599.1c0.4,15.4,3.1,30.7,7.7,45.4c2.8,8.9,6.1,17.7,9.9,26.3c1.6,3.5,3,7.3,5.4,10.4
		c1.3,1.7,3.9,4.1,3.8,0.3c0-2.5-0.6-5.3-1.1-7.8c-6.4-32.4-9.8-64.8-4.4-97.7c6.2-37.9,24.5-68,58-87.9c1.2-0.7,2.5-1.3,4.1-2.2
		c0.7,5.1,3.5,9.7,7.2,13.2c9,8.4,22,10.2,33.8,11.4c13.4,1.3,26.9,0.9,40.2-1.3c2.5-0.4,5-0.9,7.5-1.5c10.2-2.4,19.7-7.1,24.9-16.7
		c0.2-0.3,2-3.3,1.5-3.6c16.8,10.6,30.5,23.8,40.7,40.5c17.3,28.5,21.1,59.7,17.9,92c-1.1,11-2.7,21.9-4.4,32.9
		c-0.8,5.5-1.7,10.9-2.5,16.4c-0.6,3.7-2.1,7.5-1.7,11.3c0.5,4.7,2.9,2.1,4.4-0.5c2.2-3.8,3.7-8.1,5.4-12.1c3-6.8,5.8-13.7,8.3-20.6
		c16.5-46.4,13.2-90.8-14.1-132.6c-0.3-0.4-0.3-1-0.6-2.1c0.1,0.3,1.4,0.9,1.8,1.1c0.7,0.4,1.4,0.8,2.1,1.2c1.3,0.8,2.7,1.5,4,2.3
		c2.7,1.5,5.4,2.8,8.1,4.1c5.4,2.5,10.9,4.7,16.6,6.6c11.2,3.6,22.8,5.8,34.6,6.7c4.1,0.3,8.2,0.4,12.4,0.4c3.1,0,6.5,0.3,9.6-0.4
		c2-0.5,4.9-1.8,2.5-4c-1.9-1.7-4.9-1.8-7.2-2.3c-22.1-4.6-43-12.1-61.9-24.7c-3.8-2.5-7.4-5.4-11.1-8.1c3.3-0.3,6.1,0.2,9,0.5
		c3,0.3,6,0.6,9,0.7c11,0.3,22.1-0.7,32.8-3.4c10.4-2.6,20.4-6.9,29.6-12.5c4.1-2.5,8.1-5.3,11.9-8.4c1.9-1.5,3.8-3.2,5.6-4.8
		c0.9-0.8,1.9-1.7,2.6-2.7C451.2,464.5,452.5,462.6,451.9,461.8z M323.6,463.1c2.1-3.4,3.4-5.5,4.8-7.7c4.7,2.4,9.8,4.8,14.7,7.5
		c3.2,1.8,3.5,2.7,3.7,7.8C338.9,468.1,331.3,465.6,323.6,463.1z M133.8,437.7c2.8-0.4,5.7-0.9,8.4-1.8c2.7-0.9,5.3-2.1,8.1-2.5
		c-0.6,0.1-1.6,1.3-2.1,1.7c-0.6,0.5-1.2,1.1-1.6,1.8c-0.9,1.5-0.9,3.2-0.3,4.8c-4.4,0.9-8.4,2.2-12.6,2.5c-1.3,0.1-3.9-1.9-4.1-3.2
		C129.2,438.5,132,438,133.8,437.7z M127.6,432.1c-1.4-0.4-5.6-2.2-4.8-4.3c1-2.5,4-3,6.3-3.2c3.1-0.3,6.3-0.6,9.4-0.3
		c2.8,0.3,6,1.4,8.1,3.4c-0.8,0.6-1.6,1.1-2.4,1.7c-1.1,0.6-2.2,1.2-3.3,1.7c-2.2,0.9-4.6,1.5-7,1.7
		C131.9,432.9,129.7,432.7,127.6,432.1z M136.4,450.5c1-1.2,2.5-2.1,3.9-2.7c1.7-0.7,3.5-1.2,5.3-1.7c1.5-0.4,3.4-0.6,4.6,0.5
		c0.6,0.6,1.2,1.2,1.1,1.9c-0.2,0.9-1.3,1.3-2.1,1.6c-1.4,0.7-2.8,1.4-4.2,2.2c-0.9,0.5-1.9,1-2.8,1.5c-2,1-4.2,1.7-6.3,0.7
		c-0.3-0.1-0.5-0.3-0.7-0.5C134.6,453.1,135.8,451.3,136.4,450.5z M141.9,460c2.6-1.5,5.3-3,7.9-4.5c1.5,2.3,3.7,5.1,4,7.9
		c-1.6,0.6-3.2,1.4-4.9,1.8c-2.2,0.5-4.4,0.6-6.7,0.3c-1.2-0.1-2.5-0.4-2.9-1.3C138.6,462.6,140.8,460.7,141.9,460z M156.7,468.9
		c0.4-0.1,0.9,0.9,1.5,1.6c-6.7,4.2-9.8,4.2-12,0.4C149.6,470.2,153.1,469.4,156.7,468.9z M155.3,448.5c0.2,1.2,15.3,9.4,15.3,9.4
		C151.3,458.7,155.3,448.5,155.3,448.5z M150.3,437c-1.2-3.7,6.7-1.5,6.7-1.5c0.7,1.7,7.5,6.9,7.5,6.9c2.8,3.4,14.7,9.8,14.7,9.8
		c1.8,4-3.2,2.7-3.2,2.7C162.2,452.6,150.3,437,150.3,437z M144.9,417.6c-0.4-1.3-0.2-1.9,0.2-2.2c-1.1,0.7-2.3,1.2-3,1.5
		c-2.3,1.1-4.8,2.5-7.3,3c-2.4,0.5-5-0.3-7.4-0.9c-1.9-0.5-3.8-1.1-5.6-1.7c-1.3-0.4-2.9-0.5-4-1.4c-2.4-2.2,0-8,3.5-6.7
		c7,2.6,14.2,2.8,21.4,1.8c1-0.1,2.1-0.1,3,0.3c0.5,0.2,1,0.7,1.2,1.3c0.3,1.1-0.6,2-1.7,2.7c0.8-0.4,2.2,0.2,2.2,0.2
		c3.2,0,5.1,3.3,5.1,3.3c3.3,5.8,30.9,30.8,30.9,30.8C163.9,443,144.9,417.6,144.9,417.6z M293.4,450.1c-12.7,6.2-15.7,3.2-15.7,3.2
		c5.8-4,21.5-15.8,21.5-15.8c1.5-1.1,6.7,0,6.7,0C305.7,443.1,293.4,450.1,293.4,450.1z M302.9,451.5c-2.2,8.2-18.2,6.2-18.2,6.2
		c1.5-0.3,15-8,15-8C302.9,447.8,302.9,451.5,302.9,451.5z M304.6,428.1c-15.5,15.8-31.3,21.5-31.3,21.5
		c28.5-22.5,32.7-32.5,32.7-32.5c0.7-1.2,5.8,1.7,5.8,1.7C310.8,421.5,304.6,428.1,304.6,428.1z M168.6,398.5
		c4.7,17.5,26.2,46.8,26.2,46.8c0.8,2.2-2.3,0-2.3,0c-16.2-12.8-29.2-35.3-29.2-35.3c-12.2-18.7-10.7-35.6-10.7-35.6
		c6.7-0.7,9.3,2.7,9.3,2.7C161.6,379.7,168.6,398.5,168.6,398.5z M203.3,402.6c0,0,3.2,15.8,10.5,36.5c0,0,0.3,2.7-1.8,2
		c0,0-16.1-30.8-19.6-52.7c0,0-10.3-38.7,0-50.7c0,0,5.5-5.8,9.8,1.3C202.1,339.1,196.8,369.8,203.3,402.6z M213.8,386.1
		c0,0,1.8,27.7,8.5,52c0,0,0.7,2.8-5.4,1.7c0,0-9.6-28.5-10.4-40c0,0-6.9-35.9-1.7-58.9c0,0,0.8-9.7,9.3-8.7c0,0,5.8-0.3,5.5,4.4
		C219.6,336.6,212.6,345.5,213.8,386.1z M225.1,442.5c0.6-0.6,1.5-0.6,2.1,0c0.6,0.6,0.6,1.5,0,2.1l-8.3,8.1
		c-0.3,0.3-0.7,0.4-1.1,0.4c-0.3,0-0.7-0.1-0.9-0.3l-7-5.7c-0.6-0.5-0.7-1.5-0.2-2.1c0.5-0.6,1.5-0.7,2.1-0.2l6,4.9L225.1,442.5z
		 M190.1,395.1c5.5,25,17,43,17,43c2.2,2.8,1.5,4.1,1.5,4.1c-1,1.9-4-1.4-4-1.4c-16.8-26.8-22.7-50.7-22.7-50.7
		c-9.2-29.7-5.2-44.8-5.2-44.8c6.3-2.7,7.5,2.3,7.5,2.3C185.1,368,190.1,395.1,190.1,395.1z M184.3,407.3c5.3,16.5,19,34.9,19,34.9
		c-0.2,3.4-5.5,1.3-5.5,1.3c-14.5-18.3-27-48.7-27-48.7c-7.2-15.7-7.2-35.8-7.2-35.8c6-3.5,10.1,3.7,10.1,3.7
		C174.7,380.4,184.3,407.3,184.3,407.3z M154.4,397.8c0,0,15.2,33.2,34.7,47.5c0,0,2.3,3.3,0,3.2c0,0-35.8-23.2-43.8-52.7
		c0,0-1.8-4.2,3-2.2C148.3,393.6,153.1,394,154.4,397.8z M188.7,450.8c0.5-0.7,1.4-0.8,2.1-0.3l4.7,3.6l6.1-7.6
		c0.5-0.6,1.5-0.7,2.1-0.2c0.6,0.5,0.7,1.5,0.2,2.1l-7,8.7c-0.3,0.4-0.7,0.6-1.2,0.6c-0.3,0-0.6-0.1-0.9-0.3l-5.8-4.5
		C188.3,452.4,188.2,451.5,188.7,450.8z M198,457.5l8.3-10.1c0.5-0.6,1.5-0.7,2.1-0.2l8.1,6.7c0.3,0.3,0.5,0.6,0.5,1
		c0,0.4-0.1,0.8-0.3,1.1l-8.3,10.1c-0.3,0.4-0.7,0.6-1.2,0.5c-0.3,0-0.7-0.1-0.9-0.3l-8.1-6.7c-0.3-0.3-0.5-0.6-0.5-1
		C197.6,458.2,197.7,457.8,198,457.5z M211,465l6.2-7.3c0.3-0.3,0.7-0.5,1.1-0.5c0.4,0,0.8,0.1,1.1,0.4l7.6,7.4
		c0.6,0.6,0.6,1.5,0,2.1c-0.6,0.6-1.5,0.6-2.1,0l-6.5-6.3l-5.2,6.1c-0.3,0.3-0.7,0.5-1.2,0.5c-0.3,0-0.7-0.1-1-0.4
		C210.5,466.6,210.4,465.6,211,465z M220.3,456c-0.6-0.6-0.6-1.5-0.1-2.1l8.9-9.6c0.6-0.6,1.5-0.6,2.1-0.1l9.6,8.9
		c0.3,0.3,0.5,0.6,0.5,1c0,0.4-0.1,0.8-0.4,1.1l-8.9,9.6c-0.3,0.3-0.6,0.5-1,0.5c0,0,0,0-0.1,0c-0.4,0-0.7-0.1-1-0.4L220.3,456z
		 M257.6,353.1l-1.5-14.2c0,0,4-6.2,7.3-4.2c0,0,5.8,2.5,7.3,15c0,0,0,29.3-8.7,51.5c0,0-13.8,35.8-17.8,40.3c0,0-2.2,2.3-1.5-2.5
		c0,0,10.2-33.5,11.2-39.2C253.9,400,258.3,363,257.6,353.1z M273.4,347.7c1.8-2,6-2.6,6-2.6c3.5-1.6,3,5.8,3,5.8
		c0.2,18.3-6.8,41.9-6.8,41.9c-5.5,18.7-25.5,49.4-25.5,49.4c-1.5,0.6-1.7-1-1.7-1c2.2-3.9,14.3-31.8,14.3-31.8
		c5.2-14.3,7.7-28.7,7.7-28.7C273.4,371.1,273.4,347.7,273.4,347.7z M243.6,450.3l6.4-5.1c0.7-0.5,1.6-0.4,2.1,0.2
		c0.5,0.6,0.4,1.6-0.2,2.1l-7.4,5.9c-0.3,0.2-0.6,0.3-0.9,0.3c-0.4,0-0.8-0.2-1-0.4l-8.7-8.6c-0.6-0.6-0.6-1.5,0-2.1
		c0.6-0.6,1.5-0.6,2.1,0L243.6,450.3z M233.9,465.2l6.8-7.3c0.3-0.3,0.7-0.5,1.1-0.5c0.4,0,0.8,0.2,1.1,0.6l7.4,9.1
		c0.5,0.6,0.4,1.6-0.2,2.1c-0.3,0.2-0.6,0.3-1,0.3c-0.4,0-0.9-0.2-1.2-0.6l-6.3-7.8l-5.6,6c-0.6,0.6-1.5,0.6-2.1,0.1
		C233.4,466.7,233.3,465.8,233.9,465.2z M244.4,457.2c-0.2-0.3-0.4-0.7-0.3-1.1c0-0.4,0.2-0.8,0.6-1l8.2-6.5
		c0.6-0.5,1.6-0.4,2.1,0.2l8.1,10.2c0.2,0.3,0.4,0.7,0.3,1.1s-0.2,0.8-0.6,1l-8.2,6.5c-0.3,0.2-0.6,0.3-0.9,0.3
		c-0.4,0-0.9-0.2-1.2-0.6L244.4,457.2z M257.2,449.6c-0.5-0.6-0.4-1.6,0.2-2.1c0.7-0.5,1.6-0.4,2.1,0.2l6.3,8l3.6-3
		c0.6-0.5,1.6-0.4,2.1,0.2c0.5,0.6,0.4,1.6-0.2,2.1l-4.7,4c-0.3,0.2-0.6,0.4-1,0.3c0,0-0.1,0-0.1,0c-0.4,0-0.8-0.2-1-0.6
		L257.2,449.6z M261.4,446.3c30.5-39.5,35.5-70.6,35.5-70.6c0.2-0.9,8.2-2,8.2-2c2,1.5,0,10.7,0,10.7c-2.3,18.7-24.5,45.4-24.5,45.4
		C262.9,449.6,261.4,446.3,261.4,446.3z M266.6,448.5c29-28.2,38.5-53.3,38.5-53.3c7.8-2.8,6.7,1.2,6.7,1.2
		c-1.5,9.2-10.7,22.2-10.7,22.2C292.4,434.1,266.6,448.5,266.6,448.5z M319.2,425.4c3.2,0.8,6.8,0.7,10.1,0.3c3.4-0.4,5.5,0.8,6.8,4
		c-6,5.6-15.9,5.3-24.3-0.5C313.4,426.2,315.1,424.4,319.2,425.4z M336,419.2c-5,1.5-11.2,2.2-16.3,0.8c-1.1-0.3-2.1-0.7-3-1.3
		c-1.3-0.8-5.5-3.8-5-5.6c0.2-0.9,1.8-1.3,2.7-1.2c4.9,0.7,9.9,0.7,14.9,0c2.4-0.3,4.8-0.9,7.2-1.5c1.6-0.4,3.1,0.2,4.4,1.1
		c1,0.6,3.7,1.9,3,3.4C342.5,417.3,338.5,418.4,336,419.2z M314.6,406.6c0.6-7.1,2.7-9.2,9.6-9.1c3.6,0.1,6.7-0.8,9.5-3.7
		c3.9-4.2,9.8-3.7,14.4,0.6C342.4,405.1,329.7,409.7,314.6,406.6z M329.5,390.1c-7,3.2-14.1,4.2-21.7,1.5c0-3.3,1.2-5.5,5-6.3
		c9.2-2,18-5.1,26.2-10.2c3-1.9,6.3-0.7,9,2.3C343.8,384.7,336.4,387,329.5,390.1z M346.4,358.1c-0.5,2.6-2.1,4.8-3.6,6.8
		c-1.9,2.5-4.3,4.7-6.9,6.5c-7.4,5.2-16.1,7.5-25,9c-0.1,0-0.3,0-0.4,0c-0.1-0.1-0.2-0.2-0.2-0.3c-1.1-2.9,0.4-5,2.7-6.6
		c8-5.3,15.7-11.1,23.5-16.8c1.5-1.1,3.2-1.6,5.1-1.4C343.3,355.5,346.8,355.9,346.4,358.1z M309.1,369.5c-3.3,1.3-6.7,2.4-10.2,3.3
		c-0.2,0.1-0.5,0.1-0.8,0.1c-0.8-0.2-0.6-1.9-0.6-2.5c0.1-3.7,3.1-7.3,6.2-9.1c5.4-3,10.1-6.9,15.1-10.4c4.8-3.4,8.7-6.7,12.5-11.3
		c1.4-1.7,3.3-3,5.5-3.4c1.5-0.2,6.9-0.3,5.9,2.2C337,353.3,323.6,363.9,309.1,369.5z M338.4,321.9c-4,6.3-8,12.6-13.2,18
		c-3.6,3.8-7.8,7.1-12.2,10.1c-4.2,2.9-9,6.5-14,7.6c-1.2,0.3-3,0.5-4-0.3c0.7,3.3-1.6,15.3-1.6,15.3c-2.7,18.2-15.3,41.9-15.3,41.9
		c-3.8,8.2-20.3,29.5-20.3,29.5c-4,2.3-4.2-1.8-4.2-1.8c2.8-3.5,11.8-19.7,11.8-19.7c10.2-14.8,14.2-33.7,14.2-33.7
		c4.3-12,6.2-30,6.2-30c1.9-1.8,7.8-1.8,8.9-1.8c-0.2-0.2-0.3-0.4-0.4-0.7c-0.2-0.7,0.2-1.5,0.7-2c0.8-1,1.8-1.8,2.8-2.5
		c0.6-0.4,1.2-0.9,1.8-1.3c9.5-6.8,18.1-15.1,24.7-24.9c1.4-2.1,2.7-4.2,4.6-5.7c2-1.5,4.5-2.4,7-2.3c1.5,0.1,3.3,0.8,3.3,2.3
		C339.1,320.7,338.7,321.3,338.4,321.9z M317.4,327.5c-5.1,5.2-10.4,10-15.8,14.8c-2.7,2.4-5.6,4.8-8.2,7.3c-2,1.9-3.6,4.4-6.5,5.1
		c-0.1,0-0.2,0-0.3,0c0,0,0,0,0,0c-0.1-0.1-0.1-0.2-0.1-0.3c-0.9-5.8,1.9-10,5.8-14c4.5-4.6,8.1-10,12.2-14.9
		c2.2-2.5,4.3-5.3,6.1-8.2c1.9-3,3-6.4,4.7-9.5c0.8-1.6,1.6-3.5,3-4.7c1.5-1.2,8.8-4.2,9.4-1C329.4,311.3,323.6,321.2,317.4,327.5z
		 M316.7,293.9c-0.7,2.6-1.6,5.1-2.9,7.4c-5,8.4-10.5,16.6-16,24.7c-4.2,6.2-8.7,15.2-17.1,16c-0.7,0.1-1.4,0.1-2.1,0
		c-0.7-0.1-1.7-0.1-2.3-0.4c-0.4-0.2-0.6-0.3-0.7-0.3c-0.1-0.1,0-0.2,0.3-0.8c0.5-1,1.7-1.7,2.4-2.5c1.2-1.4,2.5-2.7,3.7-4.1
		c2.4-2.6,4.7-5.3,6.9-8.2c3.4-4.6,6-9.9,8.7-15.1c2.7-5.2,5.3-10.5,7.6-15.9c1-2.4,2.2-4.9,4.6-6.2c1.6-0.9,3.5-1.1,5.3-1
		C319.6,287.7,317.6,290.9,316.7,293.9z M303.8,283.8c-0.6,4.8-2.3,9.3-4.3,13.6c-7.1,15.5-17.3,29-28.3,42.2
		c-2.6-3.6-3.6-6.5-1.1-10.8c7.7-13.1,15.1-26.3,19.8-40.9c0.9-2.9,2-5.7,2.6-8.6c0.4-2.5,1.9-4.7,3.8-6.3c1.1-1,3.3-2.8,4.9-2.7
		c2.2,0.2,2.2,4.5,2.5,6.1C304.1,278.8,304.1,281.3,303.8,283.8z M288.9,271.3c-0.3,3.3-0.8,6.7-1.6,9.9c-1.8,6.9-4.2,13.5-7.2,20
		c-2.7,6-5.8,11.9-9.1,17.6c-0.9,1.5-1.9,3.2-3,4.8c-3.5,5.2-8.2,10.3-14.3,10c0.2-2.7,2.3-4.9,3.5-7.3c1.1-2.2,2.1-4.3,3.2-6.5
		c3.6-7.5,7.3-15,10.6-22.7c1.5-3.7,3.1-7.5,4.2-11.4c1.2-4.2,1.6-8.5,2.4-12.7c0.8-3.8,1.2-8.4,3.1-11.8c0.9-1.6,2.8-3.3,4.4-4
		c3-1.4,4.2,2,4.5,4.6C289.7,264.9,289.2,268.3,288.9,271.3z M275.6,254.5c0,3.5-0.4,7-0.9,10.4c-1.2,7.1-2.6,14.3-4.8,21.3
		c-2.2,7-5,13.8-7.9,20.5c-2.8,6.5-5.5,13.1-8.7,19.3c-0.7,1.3-2.3,4.1-4.1,4c-3.6-0.3,1.4-15,1.9-16.7c1.7-5.3,3.3-10.7,4.5-16.1
		c3-14.1,5.4-28.4,7.4-42.8c0.4-3,1.4-6.1,3.8-8.2c1.7-1.5,4.7-3.4,6.8-1.7C276,246.5,275.6,251.7,275.6,254.5z M252.7,339.6
		c2.3,8.7,1.6,30.2,1.6,30.2c-0.5,18.2-5.3,38.3-5.3,38.3c-1,7.2-10.2,31.9-10.2,31.9c-4,0.9-5-0.9-5-0.9c1.2-2.3,5-18.4,5-18.4
		c6.2-29.9,4.8-55,4.8-55c-0.3-16-6.3-31.6-6.3-31.6c0-2.7,5.4-3.6,5.4-3.6C250.2,330.7,252.7,339.6,252.7,339.6z M240.4,378.5
		c-1.5,34-9.5,60.7-9.5,60.7h-5.8c-5.2-20.3-7.8-51.5-7.8-51.5c-3.2-48.3,11.9-63.2,11.9-63.2C240.6,342.1,240.4,378.5,240.4,378.5z
		 M219.6,327.9c-0.4,0.9-3-2.7-3.1-3c-2.2-5.1-4.5-10.6-5.8-15.9c-3.6-14.7-7.1-29.5-9.5-44.5c-1-6-0.8-12.1-0.1-18.1
		c0.4-3.5,0.5-9.9,5.3-10c3.2,0,7.4,4.5,7.7,8.1c0.4,4.4,0.5,8.7,0.8,13.1c1.5,20.7,3,41.4,4.4,62.1
		C219.5,322,220.5,325.8,219.6,327.9z M201.3,288.7c0.4,2.5,0.9,4.9,1.4,7.4c1.2,5.3,2.7,10.6,4.3,15.8c0.7,2.3,1.5,4.5,2.2,6.8
		c0.7,2.3,5,10.2-0.6,10c-0.9,0-1.7-0.5-2.4-1.2c-3.6-3.7-5.3-9.9-7.1-14.6c-1.9-4.8-3.7-9.7-5.6-14.5c-0.4-1.2-0.9-2.3-1.3-3.5
		c-0.8-2.2-1.6-4.5-2.3-6.7c-1.5-4.5-2.7-9-3.7-13.6c-1.1-5.2-1.8-10.4-2-15.7c-0.1-2.6-0.1-5.3,0.1-7.9c0.1-2.2,0.1-4.8,1.3-6.6
		c2-3,9.5,4.2,10.2,6.3c1.7,4.9,1.2,10.1,1.9,15.2c0.7,5.2,1.6,10.4,2.4,15.5C200.4,283.7,200.8,286.2,201.3,288.7z M200.2,323.5
		c1.2,2.4,2.8,4.7,3.6,7.3c0.2,0.5,0.5,1.4,0.5,1.9c-0.2,1-0.1,0.7-1.1,0.6c-4.2-0.3-7.9-3-10.6-6.2l-9.6-18.4
		c-4.3-9.6-8.1-19.5-10.9-29.7c-1.2-4.6-2.2-9.3-2.1-14.1c0.1-1.9,0.3-3.9,0.8-5.7c0.2-0.8,0.4-1.6,1-2.1c1-0.9,2.6-0.5,3.7,0.2
		c2,1.2,3.4,3.3,4.2,5.5c0.8,2.2,1.2,4.6,1.6,6.9C184.6,288.4,191.5,306.5,200.2,323.5z M178.1,308.7c3.4,6.5,6.8,13,10.1,19.5
		c0.5,1.1,1.1,2.4,1.4,3.7c0.5,2.2,0.5,4.4-1.2,6c-1.7,1.7-3.7-1.8-4.7-2.9c-2.3-2.6-4.1-5.6-6-8.4c-4.7-6.9-9.7-13.6-13.8-21
		c-2.9-5.3-5.5-11.2-6.7-17.2c-0.9-4.5-1-9.1-0.4-13.7c0.2-1.2,0.2-3.6,1.6-4.1c1.1-0.4,2.5,0.7,3.4,1.4c1.4,1.1,3.4,2.7,4.1,4.5
		c1.8,4.3,2.5,9,3.7,13.5C171.3,296.6,174.9,302.7,178.1,308.7z M157.1,299.3c2.6,5.9,5.3,11.7,8.5,17.3
		c4.8,8.4,10.8,16.1,16.4,24.3c-5.5,1.4-9.5,0-13.2-4.6c-9.2-11.5-18.2-23-23.7-36.8c-1.2-2.9-2.1-6-2.8-9c-0.2-0.7-0.4-1.8-0.1-2.4
		c1-2.6,4.1-1.8,6.1-0.9C153.5,289.4,155,294.5,157.1,299.3z M142.4,304.1c1.9,2.5,2.9,5.6,4.4,8.4c2.1,3.9,4.4,7.6,6.9,11.3
		c5,7.3,10.7,14.1,16.6,20.7c1.9,2.1,1.7,6.1,2.4,9.2c-0.5,0.3-1,0.6-1.6,0.8c-3.7-3.2-7.5-6.5-11.2-9.7l0.1,0.1
		c-2.7-2.6-5.5-5.2-8.2-7.7c-1.6-1.5-3.5-2.8-5-4.5c-5.8-6.1-10.9-12.7-13.5-20.8c-1-2.9-1.4-6.1-1.8-9.2c-0.3-2.6,2.7-2.6,4.5-2.3
		C138.7,300.8,140.8,302,142.4,304.1z M136,326.3c2.1,3.3,4.6,6.2,7.3,9c5.3,5.4,11.3,10.1,16.3,15.6c0.2,0.2,0.4,0.5,0.7,0.7
		c0.4,0.5,0.8,1,1,1.5c0.2,0.6,0.1,1.3-0.4,1.7c-0.5,0.4-1.1,0.4-1.8,0.4c-4.5-0.3-9.1-2.2-12.8-4.8c-3.6-2.5-6.9-5.6-10-8.8
		c-5.3-5.4-10.3-11.9-14.4-18.3c-0.7-1-1.3-2.1-1.4-3.3c-0.3-3,2.3-3.3,4.6-3.1C131.1,317.5,133.2,321.9,136,326.3z M124.5,335.8
		c2.6,1.1,4.2,3.7,5.9,5.8c1.9,2.3,3.8,4.6,6,6.7l14.1,9.8c2.1,1.3,4.1,2.6,6.2,4c2.8,1.8,3.9,4.9,4.1,8.1c0,0.5,0.1,1.1-0.1,1.6
		c-0.1,0.4-0.2,0.6-0.7,0.6c-4.1-0.7-7.9-2-11.6-3.9c-4.4-2.2-8.8-4.7-12.8-7.5c-0.3-0.2-0.6-0.4-0.8-0.6c-2.8-2.1-5.4-4.5-7.8-7
		c-2-2-3.8-4.2-5.9-6.2c-1.8-1.8-3.6-3.9-4.4-6.5c-0.3-1.1-1.7-4.8-0.4-5.6C118.5,333.6,122.3,334.8,124.5,335.8z M122,356
		c2.1,0.9,4,2.3,5.8,3.7c3.9,2.8,7.7,5.8,11.6,8.7c1.9,1.5,3.9,2.9,5.9,4.2c1.6,1.1,3.1,2.5,3.1,4.6c0,0.6-0.1,1.1-0.2,1.6
		c-0.1,0.5-0.1,0.9-0.4,1c-1,0.7-2.2,0.3-3.3,0c-5.7-1.2-11.2-3.7-16.3-6.5c-3.4-1.9-6.7-4-9.5-6.7c-2.5-2.4-4.6-5.4-5.7-8.8
		c-0.7-2,0.3-3.4,2.5-3.3C117.7,354.8,119.9,355.2,122,356z M120.7,374.4c7.3,3.4,14.6,6.7,22.1,9.4c4.9,1.8,5.1,1.4,7.7,7.5
		c-13.9,3.4-25-2.6-35.5-10c-1.8-1.3-4.8-4.7-4-6.2C112.5,372.5,117.3,373.3,120.7,374.4z M115.9,390.4c2-0.2,3.9,0.4,5.8,0.9
		c4.9,1.3,9.5,3.7,14.4,4.9c4.1,1,7.9,4.9,7.7,9.4c0-0.5-6.3,0-6.9,0c-3.5,0.1-7.1,0.6-10.5,0.1c-1.3-0.2-2.6-0.6-3.8-1.1
		c-2.5-1.1-4.8-2.6-6.8-4.4c-1-1-2-2-2.8-3.2c-0.7-0.9-1.9-2.3-2-3.5C110.9,391.7,114.6,390.5,115.9,390.4z M184.9,454
		c0.3-0.3,0.6-0.5,1-0.5c0.4,0,0.8,0.1,1.1,0.3l8.1,6.7c0.3,0.3,0.5,0.6,0.5,1c0,0.4-0.1,0.8-0.3,1.1l-8.3,10.1
		c-0.3,0.3-0.6,0.5-1,0.5c-0.1,0-0.1,0-0.2,0c-0.3,0-0.7-0.1-0.9-0.3l-8.1-6.7c-0.6-0.5-0.7-1.5-0.2-2.1L184.9,454z M190.8,470.7
		l5.7-7.8c0.2-0.3,0.6-0.6,1-0.6c0.4,0,0.8,0.1,1.1,0.3l6.1,5.1c0.6,0.5,0.7,1.5,0.2,2.1c-0.5,0.6-1.5,0.7-2.1,0.2L198,466l-4.8,6.5
		c-0.3,0.4-0.8,0.6-1.2,0.6c-0.3,0-0.6-0.1-0.9-0.3C190.5,472.3,190.3,471.4,190.8,470.7z M259.2,476c-7.3,10.7-58.8,10.4-64.8-0.8
		C207.2,467.4,243,467.8,259.2,476z M257.1,471.3c-0.6,0.5-1.6,0.4-2.1-0.2c-0.5-0.6-0.4-1.6,0.2-2.1l7.1-5.7
		c0.3-0.3,0.7-0.4,1.1-0.3c0.4,0.1,0.8,0.3,1,0.6l8.5,11.6c0.5,0.7,0.3,1.6-0.3,2.1c-0.3,0.2-0.6,0.3-0.9,0.3
		c-0.5,0-0.9-0.2-1.2-0.6l-7.6-10.4L257.1,471.3z M265.7,464.2c-0.2-0.3-0.4-0.7-0.3-1.1c0-0.4,0.2-0.8,0.6-1l8.2-6.5
		c0.3-0.2,0.7-0.4,1.1-0.3c0.4,0,0.8,0.2,1,0.6l8.1,10.2c0.5,0.7,0.4,1.6-0.2,2.1l-8.2,6.5c-0.3,0.2-0.6,0.3-0.9,0.3
		c-0.1,0-0.1,0-0.2,0c-0.4,0-0.8-0.2-1-0.6L265.7,464.2z M286.6,461.6c4.2,0.5,9.7-1.3,9.7-1.3c3.7-0.8,1.8,3.3,1.8,3.3
		c-8.3,4-13.3,0-13.3,0C283.1,461.1,286.6,461.6,286.6,461.6z M310.7,470.9c-1.6,4.1-5.6,4.1-12.3,0
		C303,468,306.7,472.3,310.7,470.9z M303.2,465.4c-0.1,0-0.2,0-0.3-0.1c-0.1-0.1-0.1-0.1-0.2-0.2c-0.8-1.6,0.6-2.8,1.5-4.1
		c1-1.6,2.1-3.1,3.1-4.7c3.1,1.7,6.2,3.3,9.1,5.2c0.9,0.6,1.4,2.3,1.3,3.5c0,0.5-2,1.4-3,1.3C310.9,466.2,307.1,465.7,303.2,465.4z
		 M305.1,450c2-3.7,3.6-4.5,6.3-3.2c2.4,1.2,5.1,1.8,7.8,2.5c3.3,0.9,3.5,3.2,3.2,7.1C316.3,454.1,310.9,452.1,305.1,450z
		 M312.5,442c-0.3-0.3-0.5-0.8-0.7-0.9c-4-2.6-4-3.6-5.2-6.6c0.1-0.4,0.2-0.8,0.3-1.2c1.1,0.3,2.3,0.5,3.4,0.8
		c5.2,1.5,10.3,3,15.4,4.7c1.1,0.4,2.5,1.5,2.6,2.5c0.2,0.9-0.9,2.5-1.8,3C323.6,445.9,315,444.3,312.5,442z M356,459.5
		c-0.4,0.9-2.3,2.1-3.1,1.8c-8.6-2.1-16.7-5.3-23.7-10.9c1.8-2.2,3.5-4.2,4.8-5.8c6.3,2.9,12.8,5.9,19.2,8.8
		C356.2,454.6,357.3,456.6,356,459.5z M367.9,452.5c-12.2-2.1-24.2-4.8-33.7-14.3c3.1-2.9,5.7-3.4,9.8-1.6
		c6.4,2.8,13.3,4.7,20.2,6.3C370.9,444.4,371.9,446.2,367.9,452.5z M380.7,439.2c-11.7,0.7-23.1-0.6-33.6-5.8
		c-3.6-1.8-6.2-5.6-9.2-8.6c0.2-0.7,0.5-1.3,0.7-2c2,0,4.2-0.6,5.8,0.1c10.8,4.4,22,6.6,33.6,6.9c1.9,0,4.4,1.5,5.6,3.1
		C386.6,436.5,385.3,438.9,380.7,439.2z M394.2,424.2c-16.2,3-32,2.1-47.3-4.1c0.8-2.7,1.4-4.9,2.1-7.3c4.6,0.5,9.5,1.2,14.3,1.3
		c8.7,0.2,17.5,0.2,26.2-0.1c2.9-0.1,5.2,0.4,6.7,2.7c1.1,1.6,2,3.6,2.2,5.4C398.5,422.8,395.8,423.9,394.2,424.2z M409.5,407.3
		c-21.6,5.2-42.9,5-64.8,0.3c2.3-2.6,4.1-5,6.3-7c0.8-0.8,2.4-1.1,3.6-1.1c15.5-0.6,30.9-1.1,46.4-1.7
		C404.8,397.6,408.4,401.2,409.5,407.3z M420.7,388.6c-16.3,6.2-45.1,9.2-65.9,7c-2-2.4-3.6-4.2-5.3-6.1c-0.9-1-1.8-2-2.6-3
		c1.4-0.5,2.9-1.3,4.3-1.4c8.9-0.3,17.8,0,26.7-0.8c9.8-0.9,19.5-2.5,29.1-4.5C415.4,378,418.6,379.6,420.7,388.6z M427.1,366.8
		c-8,5.2-17,8.2-26.2,10.3c-16,3.6-32.2,4.2-49.4,4c2.5-3.5,2.2-6-1.8-8.2c3.8-0.6,6.7-1.2,9.6-1.5c20.2-2.4,39.8-7,58.5-15.2
		c3.2-1.4,5.9-0.9,8.6,0.5C431.9,359.3,432.1,363.5,427.1,366.8z M437.1,342.7c-28.9,15.6-58.5,23.1-89.9,25.4
		c1.6-6.8,5.8-9.2,12.1-10.5c22.8-4.7,45.3-10.9,66.2-21.6c1-0.5,2.8-0.6,3.7-0.1C431.8,337.8,434,340,437.1,342.7z M439.9,321.4
		c-9.4,8.6-20.3,14.5-32.1,18.2c-17.6,5.5-35.6,10-53.4,14.7c-1.1,0.3-2.6-0.1-3.8-0.6c-2.5-0.9-5-2.1-8.4-3.6
		c1.6-1.3,2.8-3,4.4-3.5c26.9-9,53.3-19.1,78.5-32.3C429.6,311.9,436.2,315.1,439.9,321.4z M443.9,295.5
		c-5.9,4.6-11.2,9.5-17.2,13.3c-19.5,12.6-41.2,20.3-63,27.8c-5.4,1.8-10.8,3.5-17.4,5.6c3.1-4.6,2.5-7.6-1.7-9.7
		c13.4-5.9,26.4-11.2,39-17.4c14.2-7,28.1-14.8,42-22.4C429.7,290.4,438.1,291.1,443.9,295.5z M437.1,271.9c0.7,0.8,0.6,3.1-0.1,3.9
		c-3.5,4-6.7,8.6-11,11.4c-9.9,6.5-20.1,12.8-30.8,18c-18.3,8.9-37.1,16.8-56.5,25.5c2.3-7.5,6.4-11.3,12.9-14.1
		c25.6-11.1,49-25.6,69.1-45.1C424.3,268.1,434.1,268.3,437.1,271.9z M434.9,248.2c-4.5,5.6-8.6,11.4-13.3,16.6
		c-17.3,18.9-38.7,32.1-61.3,43.6c-0.9,0.4-1.7,0.8-2.6,1.3c-7.7,4.2-15.5,7.7-24.7,3.7c1.1-0.6,2.2-1.4,3.5-2.1
		c25.5-14.2,49.9-29.7,70.6-50.6c3.2-3.2,6.2-6.6,9.2-10C421,245.3,427.5,244.2,434.9,248.2z M420.7,221.3c2.3,0,4.5,0.4,8.2,0.7
		c-3.8,7.1-6.8,13.5-10.6,19.4c-11.4,17.6-27.1,30.8-44.2,42.4c-13.1,8.9-26.8,16.8-41.1,25.7c0-3.5,0.4-5.6-0.1-7.6
		c-0.7-2.6,0.5-3.8,2.3-5.4c16.8-14.7,33.7-29.3,50-44.5c7.6-7.1,14.3-15.2,20.5-23.5C409.7,223.1,414.5,221.3,420.7,221.3z
		 M417.8,200.7c-4.5,10.7-10.6,19.9-17.4,28.7c-15.5,20.1-34.1,37.1-53.5,53.2c-3.3,2.7-6.6,5.3-9.9,8c-6.6,5.3-6.6,5.3-16.1,6.2
		c1.1-4.6,1.6-8.9,5.7-12.5c26.5-23.5,50.6-49.3,69.3-79.7c0.9-1.4,2.7-2.6,4.4-3.3C405.8,199.2,411.6,199.1,417.8,200.7z
		 M385.2,181.2c6.1-3.2,12.9-3.4,18.9-0.5c-8.2,17.2-18.3,32.7-29.8,47.5c-15,19.3-32,36.8-50.1,53.2c-1.1,1-3.1,1.5-4.7,1.7
		c-2.8,0.3-5.7,0.1-9.2,0.1c1-1.2,1.8-2.1,2.6-3.1c19.5-21.5,38.9-43.3,54.3-68c5.4-8.7,9.6-18.1,14.5-27.1
		C382.5,183.4,383.8,181.9,385.2,181.2z M368.7,162.9c4.7-1.6,9.6-2.8,15.2-4.4c-0.4,10-2.9,18.3-6.4,26.4
		c-9.1,20.9-22.3,39.3-36.7,56.8c-9.3,11.3-19.2,22.1-28.8,33.2c-1,1.1-1.8,2.3-2.9,3.8c-1.2-4.1-2.4-7-2.9-10
		c-0.2-1.2,0.9-2.7,1.7-3.9c12.1-17.3,24.7-34.2,36.3-51.8c9.5-14.4,17.5-29.8,21.7-46.7C366.1,165,367.4,163.3,368.7,162.9z
		 M360.5,144.1c1.3-0.2,2.7,0,4.6,0c-0.2,12.4-3.2,23.7-7.5,34.7c-10.2,25.9-25.9,48.4-42.4,70.5c-2.6,3.5-5.6,6.8-8,10.4
		c-2.8,4.2-6.5,6.8-11.3,8c-1.6-3.8,0.3-6.7,2.3-9.7c15-22.8,29.4-45.9,39.4-71.4c4.1-10.5,6.6-21.7,9.6-32.6
		C348.4,149.5,353.8,145,360.5,144.1z M335.6,130.7c2.5-1.5,5.2-2.9,9.1-5.1c0,7.9,0.6,14.4-0.1,20.9c-3,25.7-13.5,48.7-25.8,71
		c-7.4,13.4-15.7,26.3-23.7,39.5c-4.7-4.3-4.8-5-2-10.5c12-23.9,22.7-48.4,29.7-74.2c2.7-9.9,4.5-20,6-30.2
		C329.6,137,331.4,133.3,335.6,130.7z M309.8,129.4c0-3.8,1.2-6.4,4.2-8.3c3.8-2.3,7.7-4.4,12.6-7.1c0,7.1,0.3,12.9-0.1,18.7
		c-2.4,34.7-14.8,66.4-29.5,97.3c-3.1,6.4-6.2,12.8-9.7,19c-1.4,2.5-4,4.4-6.2,6.8c-1.2-6.2-2.2-11.4-3-16.6
		c-0.2-1.2,0.8-2.5,1.4-3.7c9.7-19.1,17.9-38.8,23.4-59.5C307.1,160.8,309.8,145.3,309.8,129.4z M286.2,119.2
		c-0.3-4.5,3.8-9.5,9.4-11.6c7.3-2.7,8.4-2.2,9.5,5.4c2.6,18.6,1,36.9-3.1,55.1c-5.3,23.7-14.2,46-25.2,67.5c-0.8,1.5-2.5,2.6-4,3.5
		c-2.3,1.3-4.9,2.1-7.5,3.3c2.7-7.9,5.6-15.7,8.2-23.6C283.9,186.4,288.8,153.3,286.2,119.2z M267.2,106.6c4-4,8.3-7.4,14.5-9.2
		c4.4,48.3,1.5,95.2-18.8,139.7c-5.9-3.8-5.4-8.2-3.8-13.8c7.5-25.9,11.2-52.3,9.5-79.2c-0.6-9.7-2.2-19.3-3.8-28.9
		C264.4,111.8,264.7,109.1,267.2,106.6z M247.6,98c2.5-1.7,5-3.3,7.5-5l1.7,0.3c2.3,12.7,5.2,25.4,6.8,38.3
		c4,32.7,0.1,64.8-9.2,96.3c-1.4,4.7-5.7,4.5-9.1,7.3c0.2-2.9,0.3-5,0.4-7.1c1.6-33,1.3-66.1-0.5-99.1c-0.4-7.7-0.5-15.4-1.1-23
		C243.7,102.3,244.8,99.9,247.6,98z M243.6,267.2c0.4-6.8,0.5-13.6,1.6-20.3c0-0.1,0-0.3,0.1-0.4c0.8-4,3.6-11.5,9-9.8
		c2.2,0.7,3,3.5,3.3,5.5c1.2,6.3,1.9,13,1.1,19.3c-0.8,6.2-1.9,12.4-3.2,18.6c-1.5,7.2-3.4,14.3-5.3,21.4c-1.1,4-2.2,8.1-3.4,12.1
		c-0.7,2.5-1.2,5.1-2.1,7.5c-0.5,1.2-1.2,2.4-1.9,3.5c-0.4,0.6-2.5,3.3-3.2,1.6c-0.3-0.8,0-2.5,0.1-3.4c0.1-1.4,0.2-2.9,0.3-4.3
		c0.2-2.8,0.5-5.5,0.7-8.3c0.4-5.6,0.8-11.2,1.1-16.8C242.5,284.8,243.1,276,243.6,267.2z M224.6,66.5c0.6-4.8,1.2-9.6,1.8-14.4
		c1.3-9.7,2.5-19.5,3.8-29.2c0.2-1.3,0.4-2.5,0.7-3.7c0-0.2,0.1-0.4,0.2-0.6c0.1-0.2,0.1-0.3,0.2-0.4c0.1-0.1,0.2-0.1,0.3,0
		c0.1,0.2,0.2,0.5,0.2,0.8c0.1,0.6,0.2,1.2,0.2,1.9c0.1,0.7,0.1,1.3,0.2,2c0,0.4,0.1,0.8,0.1,1.2c0.1,1.3,0.3,2.6,0.4,3.9
		c0.1,1.3,0.3,2.6,0.4,3.9c0.1,1.3,0.3,2.6,0.4,3.9c0.1,1.3,0.3,2.6,0.4,3.9c0.1,1.3,0.3,2.6,0.4,3.9c0.1,1.3,0.3,2.6,0.4,3.9
		c0.1,1.3,0.3,2.6,0.4,3.9c0.1,1.3,0.3,2.6,0.4,3.9s0.3,2.6,0.4,3.9c0.1,1.3,0.3,2.6,0.4,3.9c0.1,1.3,0.3,2.6,0.4,3.9
		c0.1,1.3,0.3,2.6,0.4,3.9s0.3,2.6,0.4,3.9c0.2,1.8,0.3,3.6,0.5,5.3l-6.9,5.5l-7.9-5C223.5,75.8,224,71.1,224.6,66.5z M217.7,162
		c0.4-12.2,1.1-24.4,1.9-36.6c0.8-11.1,1.5-22.2,2.3-33.4l9.1,5.8l7.6-6.1c1,14.4,1.7,28.8,2.2,43.2c0.5,12.7,1.1,25.4,1.3,38.1
		c0,0.4,0,0.8,0,1.1c0.3,27.2-0.2,54.4-1.7,81.6c-1.3,24.2-3.3,48.3-6.1,72.3c-1.8-3.7-3-6.2-4.6-9.5c-1.9,2.4-3.4,4.5-5.8,7.5
		c0.4-0.5-0.4-3.8-0.5-4.6c-0.2-1.8-0.4-3.6-0.5-5.4c-0.3-3.4-0.7-6.9-1-10.3c-0.6-6.9-1.2-13.8-1.7-20.6c-1-13.7-1.8-27.4-2.4-41.2
		C216.9,216.7,216.8,189.3,217.7,162z M200.1,117.7c0.7-4.3,1.5-8.6,2.5-12.9c0.8-3.9,1.9-7.7,3.2-12.8c3.7,3.1,6.8,5.5,9.7,8.2
		c0.7,0.7,1.1,2.2,1,3.3c-3.9,43-3.4,86-2.3,129.1c0,0.9,0,1.9,0,2.8c-0.3,0.2-0.7,0.5-1,0.7c-1.9-2.7-4.6-5.2-5.5-8.3
		C196.9,191.7,193.6,155,200.1,117.7z M180.3,96c4.4,2.8,7.9,4.8,10.9,7.2c4.4,3.4,6.4,7.3,5.1,13.8c-6.2,32-4,63.8,3.4,95.4
		c0.9,4,1.5,8.2,3.2,11.9c2.4,5.5,0.9,9.3-3.9,12.8C179,192.2,176.1,145.4,180.3,96z M157.6,109.1c0.1-2.7,1.6-3.3,4.1-3.1
		c8.1,0.6,14.2,7,13.7,15.1c-2.6,41.5,5.8,81.2,20.7,119.7c0.1,0.4,0.2,0.8,0.4,1.3c-3-1.2-5.8-2.2-8.5-3.6
		c-1.1-0.5-2.2-1.5-2.8-2.6c-14.9-30-26.5-61.1-28.8-94.9C155.8,130.4,157.2,119.7,157.6,109.1z M136.2,113
		c5.4,3.6,9.9,6.5,14.2,9.7c1,0.7,1.5,2.6,1.5,4c0.4,38.1,12,73.3,28.3,107.2c1.4,3,2,5.5,1.1,8.9c-1.1,3.7-1,7.8-1.4,11.7l-0.9,0.9
		c-1.9-2.1-4.4-4-5.7-6.4c-15.5-30.2-29-61.2-34.9-94.9c-2-11.3-2-22.9-2.8-34.4C135.5,118,135.9,116.2,136.2,113z M118.6,126
		c8.1,1.6,13.4,7.3,14.5,15.6c3.5,26.4,11.7,51.4,22,75.9c4,9.6,8.5,19,12.8,28.4c2.4,5.3,2.5,5.3-1.4,10.9
		c-6.2-10.2-12.4-20-18.1-30c-12.1-21.1-22.3-43-28.1-66.8C117.3,147.9,116.5,133.5,118.6,126z M97.9,142.7
		c6.5-0.1,11.5,2.2,15.8,6.4c0.6,0.6,0.9,1.7,1.1,2.5c3.7,24.5,13.8,46.7,25.6,68.1c7.3,13.3,15.5,26.2,23.1,39.3
		c1.3,2.2,1.5,5.1,2.3,8.1c-6-1.2-9.2-4.3-12.1-8.2c-15.3-20.4-30.1-41.1-41.4-64.1c-7.4-15.1-13.4-30.6-14.3-47.7
		C97.9,145.9,97.9,144.6,97.9,142.7z M94.9,162.1c0.7,0.2,1.4,1.3,1.6,2.1c5.3,23.6,17.6,43.8,30.5,63.7c8,12.4,16.8,24.4,25.3,36.4
		c1.3,1.9,1.1,4.1,0.6,6.3c-0.6,2.4-1.1,4.9-1.6,7.3c-1.5-1.7-2.9-3.2-4.2-4.7c-18.9-21.3-37-43.3-51.5-68
		c-7.2-12.3-13.5-25.1-15.9-39.4c-0.4-2.4-0.5-4.9-1-8.7C84.8,158.9,89.9,160.4,94.9,162.1z M59.2,180.1c-0.2-0.4-0.2-0.8-0.3-1.2
		c6.4-2.8,12.6-1.8,18.7,1c1.1,0.5,2.3,1.6,2.7,2.8c11.1,28,29.2,51.6,48,74.7c6.7,8.3,13.8,16.3,21.1,24.9
		c-6.2-0.3-11.6,0.8-16.8-4.4c-26.3-26.2-50.6-54-68.1-87.1C62.7,187.3,61,183.7,59.2,180.1z M44.4,199.3c7.8-1.9,14.2-1.3,20.4,1.4
		c0.8,0.3,1.4,1.3,1.8,2.1C84,232.9,107,258.4,132,282.1c5.5,5.3,5.6,5.2,6.8,13.6c-4.9,0-9.2-0.6-13.4-4.1
		c-24.7-20.8-48.8-42.1-67.3-68.9C53.2,215.5,49.2,207.5,44.4,199.3z M36.4,224.7c-0.3-0.9-0.7-1.8-1-2.7c-0.1-0.4-0.1-0.8-0.2-1.6
		c5.7-1.2,10.9-1,16,1.1c1.3,0.5,2.4,1.8,3.3,2.9c17.2,24,38.6,43.9,60.8,63.1c1.9,1.6,3.6,3.5,5.7,4.7c6.3,3.4,7.1,8.7,5.5,15.4
		c-4.3-2.5-8.6-4.9-12.7-7.4C93,287.6,73,274,56.4,255.9C48,246.7,40.9,236.5,36.4,224.7z M27.4,246.6c8-4.2,14.2-2.9,19,3
		c15.7,19.2,34.9,34.3,55.6,47.7c8.2,5.3,16.7,10.3,25.5,15.7c-3.8,0.5-6.9,1-10.1,1.2c-1.4,0.1-3.1,0-4.3-0.6
		c-25.1-11.7-48.8-25.6-68.1-45.7C38.6,261.3,33.3,253.8,27.4,246.6z M25.3,274.2c-2.1-2.3-1-4.1,1.7-5.3c5.9-2.7,11.4-1.8,16,2.7
		c18.7,18.5,40.5,32.5,64.3,43.4c6.4,2.9,11.7,6.2,13.1,14.2c-27.5-12.5-55.6-23.3-80.4-40.5C34.4,284.8,30,279.2,25.3,274.2z
		 M19.1,292.8c6.6-4.3,13.4-4.3,19.6-0.1c17.4,11.6,36.3,20.3,55.2,29c6.9,3.2,13.9,6.3,21.4,9.7c-4.7,2.4-4.7,5.5-2.2,9.2
		C84.7,332.8,31.5,311.9,19.1,292.8z M21.4,320.2c4.7-8.2,10.8-9.9,17.9-6c22.9,12.5,47.1,22,71.6,30.7c2.2,0.8,4.2,2.3,6.9,3.8
		c-7.2,3.9-13.1,4.9-20.3,3.1c-20.2-5.3-40.4-10.2-58.8-20.3C32.7,328.2,27.1,324,21.4,320.2z M28.2,343.3c-3-1.2-2.7-2.9-1.3-5.1
		c2.6-4.1,6.4-5.2,10.7-2.9c19.5,10.2,40.4,16,61.6,21.1c2.4,0.6,5.3,0.4,7.1,1.8c2.6,2,4.3,5.1,6.4,7.8c-0.3,0.4-0.6,0.7-1,1.1
		c-14.9-1.1-29.8-3.2-43.9-7.9C54.3,354.6,41.4,348.6,28.2,343.3z M31.9,363.8c-2.4-1.3-2.3-3.1-1.2-5.2c2.3-4.2,7.6-6.2,11.9-4.2
		c21.1,9.5,43.3,14.4,67.3,17.1c-4.1,2.2-4.6,4.7-2.3,8.4c-2.8,0-5,0.1-7.3,0c-18.7-0.5-37.3-1.5-54.8-8.8
		C40.8,369.2,36.4,366.3,31.9,363.8z M40,387.2c0.5-7.6,5.1-11.2,11.8-9.3c18.2,5.2,36.9,6.2,55.7,6.1c1.7,0,3.4,0.8,4.9,1.2
		c-2.8,3.3-4.7,5.7-6.8,7.9c-0.6,0.6-1.4,1.3-2.2,1.3C81.9,395.7,60.6,394.3,40,387.2z M53.4,406.5c-3.2-0.4-3.4-2.1-2.2-4.6
		c2-4,5.1-5.5,9.5-5.3c13.2,0.8,26.5,1.5,39.8,1.9c4.2,0.1,8.1-0.2,10.4,4.3c0.6,1.3,2,2.2,3.3,3.6c-11.2,2.6-21.9,4-32.7,3.3
		C72.1,409.2,62.8,407.6,53.4,406.5z M61,421.7c-0.5-5.4,3.5-9.5,8.6-8.8c12.6,1.7,25.1,0.6,37.6-1c0.8-0.1,1.6-0.1,2.2-0.2
		c0.8,2.7,1.4,4.8,2.1,7C100.1,425.1,76.9,426.6,61,421.7z M76.9,437.8c-3.2,0.1-3.8-1.8-2.7-4.3c1.2-2.9,2.8-5.1,6.6-5
		c11.5,0.2,22.6-2.2,33.2-6.6c1.6-0.7,3.7-0.1,5.8-0.1c-3.4,11.7-13,13-21.6,14.8C91.3,438,84,437.5,76.9,437.8z M97.2,450.2
		c-0.9,0.2-1.9,0.4-2.8,0.5c-4.4,0.9-5.3,0.2-5.8-4.2c-0.3-2.8,0.6-4,3.6-4.6c7.4-1.6,14.8-3.7,22-6.1c4.7-1.6,4.6-2,9.7,1.4
		C116.4,445,107,447.9,97.2,450.2z M103.1,460.8c-2.4-5.5-1.7-7.1,3.2-9.1c6-2.5,11.9-5.4,17.6-8.1c0.8,1.1,0.6,1.9,1.5,3.1
		c0.7,0.8,2.5,2,3.2,2.9C121.4,455.5,112.6,458.5,103.1,460.8z M110.8,468.8c0-3.8,1.7-5.8,4.5-7.2c4.7-2.3,9.5-4.7,13.9-6.9
		c-0.1,0.1,0.7,4,1,4.4c0.5,0.9,1.8,1.3,2.6,1.9c1.2,0.7-0.5,1.2-1.1,1.5c-2.1,1.2-4.2,2.2-6.4,3
		C120.7,467.3,115.8,468.4,110.8,468.8z M94.9,492.3c-55.7,6.5-84.7-24.2-84.7-24.2c33.2,16.9,65.6,17.5,65.6,17.5
		c34,0.9,58.2-18.1,58.2-18.1l6.4,7.6C125.7,486.3,94.9,492.3,94.9,492.3z M71.1,526.6c-5.4,1.4-10.9,2.5-16.5,3.3
		c-2.8,0.4-5.6,0.7-8.4,0.9c-1.3,0.1-2.6,0.1-4,0.1c-0.5,0-3.8-0.1-1.8-1.1c1.9-0.9,3.9-1.1,6-1.6c3.7-0.8,7.3-2.1,10.8-3.3
		c6-2.1,11.8-4.4,17.5-7.2c2.5-1.2,4.9-2.6,7.3-4c9.2-5.6,17.7-12.3,26.6-18.4c2.2-1.5,4.8-2.5,7.2-3.6c8.2-3.6,16.3-7.2,24.5-10.8
		c-4.1,4.7-8.2,9.5-12.4,14.1C112.5,511.9,92.6,520.9,71.1,526.6z M125.1,521.5c-8.9,12.1-15,26-18.8,40.5
		c-4.7,17.8-5.6,36.3-4.4,54.6c0.6,9,1.7,18,3.1,26.9c1.3,8.6,3,20.9,5.6,30.2c-4-3.7-6.8-14-8.8-18.9c-2.2-5.5-4.1-11.2-5.5-17
		c-2.9-11.5-4.3-23.3-4.5-35.2c-0.3-18.4,1.6-36.9,7.8-54.3c5.4-15,13.8-28.5,23.5-41c2.3-3,30.9-33.9,32-32.5c3,3.9,6,7.8,8.9,11.7
		C148.7,495.2,135.5,507.3,125.1,521.5z M168.3,472.1c-3-0.6-3.8-2.6-3.8-2.6c1,0.8,7.2,0,7.2,0
		C169.9,472.5,168.3,472.1,168.3,472.1z M165.3,465.4c-7.2-0.4-7.3-5.2-7.3-5.2c-0.2-1.1,2.5,0,2.5,0c1,0.6,4.3,0.8,4.3,0.8
		c6.8,0.8,6.8,1.8,6.8,1.8C170.3,466,165.3,465.4,165.3,465.4z M172.9,462.3l4.6-5.8c0.5-0.7,1.5-0.8,2.1-0.2
		c0.7,0.5,0.8,1.5,0.2,2.1l-4.6,5.8c-0.3,0.4-0.7,0.6-1.2,0.6c-0.3,0-0.6-0.1-0.9-0.3C172.5,463.9,172.4,462.9,172.9,462.3z
		 M174.1,467.7c0.5-0.6,1.5-0.7,2.1-0.2l7.4,6.2c0.6,0.5,0.7,1.5,0.2,2.1c-0.3,0.4-0.7,0.5-1.2,0.5c-0.3,0-0.7-0.1-0.9-0.3l-7.4-6.2
		C173.6,469.2,173.5,468.3,174.1,467.7z M281.3,487.9c-0.1,0.5-0.3,1-0.6,1.5c-0.6,1-1.4,2-2,2.9c-6.6,8.5-17.4,11.9-27.6,13.6
		c-13.3,2.3-26.8,2.6-40.1,1.1c-2.1-0.2-4.2-0.5-6.2-0.9c-6.5-1-12.9-2.7-18.9-5.5c-5.4-2.5-9.8-6.1-11.5-12.1
		c-0.9-3.3-0.5-5.8,3.3-7c3.8-1.3,7.3-3.2,11-4.6c0.9-0.3,2.5-0.1,3.1,0.6c3.6,4.2,8.3,6.2,13.4,7.4c15.6,3.7,31.2,3.8,46.7-1
		c2.9-0.9,6.1-2.3,8.2-4.4c2.5-2.4,4.4-2.2,7-0.8c3.8,2.1,7.8,4,11.8,5.7C280.2,485.1,281.6,486.3,281.3,487.9z M285.3,473.3l-7,5.6
		c-0.3,0.2-0.6,0.3-1,0.3c-0.4,0-0.9-0.2-1.2-0.6c-0.5-0.6-0.4-1.6,0.2-2.1l7-5.6c0.6-0.5,1.6-0.4,2.1,0.2S286,472.8,285.3,473.3z
		 M286.8,469.5c0,0,4.8,1,6.7,0c0,0-0.3,2.2-3.3,2.5C290.1,472,287.6,472.8,286.8,469.5z M351.5,548.9c5.9,17.5,7.5,36.1,6.8,54.4
		c-0.4,11.8-2.1,23.7-5.2,35.1c-1.6,5.8-3.5,11.4-5.8,16.9c-2.1,4.9-5,15.2-9.1,18.8c2.8-9.2,4.7-21.6,6.2-30.1
		c1.5-8.9,2.8-17.9,3.5-26.9c1.6-18.3,0.9-36.8-3.4-54.7c-3.5-14.6-9.4-28.6-18-40.9c-10.1-14.4-23.1-26.7-38.3-35.7
		c3.1-3.8,6.1-7.7,9.2-11.5c1.1-1.4,29.1,30.1,31.4,33.1C338.2,520.2,346.4,533.8,351.5,548.9z M406.6,528.6
		c1.8,0.5,3.6,1.1,5.8,1.7c-9.7,1.6-37.5-4.1-56.6-12.7c-18.4-8.3-31.6-22.3-44.9-36.7c1.8,1,3.6,2.3,5.6,3.1
		c6.9,2.9,14,5.5,20.8,8.6c3.7,1.7,7.3,3.7,10.4,6.3C365.1,513.2,385,522.5,406.6,528.6z M357.1,492.4c0,0-28.8-4.6-43.5-15.4
		l6.4-7.4c0,0,22.1,17.2,56.2,16.3c0,0,26.9,0.9,65.6-17C441.8,468.9,412.8,498.6,357.1,492.4z"/>
</g>
</svg>
