<?xml version="1.0" encoding="utf-8"?>
<!-- Generator: Adobe Illustrator 22.1.0, SVG Export Plug-In . SVG Version: 6.00 Build 0)  -->
<svg version="1.1" xmlns="http://www.w3.org/2000/svg" xmlns:xlink="http://www.w3.org/1999/xlink" x="0px" y="0px"
	 viewBox="0 0 120.6 121.9" style="enable-background:new 0 0 120.6 121.9;" xml:space="preserve">
<style type="text/css">
	.st0{fill:#FFFFFF;}
</style>
<g id="Camada_2">
	<g>
		<path class="st0" d="M59.4,20.2c-22.7,0-41,18.4-41,41s18.4,41,41,41s41-18.4,41-41S82.1,20.2,59.4,20.2z M51,94.4
			c-6.1-1.2-11.2-4.3-15.6-8.6c-8.3-8.2-8.7-16.3-8.7-16.3l1.9-3.2c3.3,8.1,11.6,16,11.6,16c3.7,3.8,8.6,6.2,13.8,7.2
			c8.6,1.5,17.3-1.5,24-6.9c2.8-2.2,6.6-5.6,7.8-9c6.7-18.7-7.3-31-7.3-31c-15.3-14.4-29.9-6.5-29.9-6.5s-12.8,6.1-12.2,20
			c0.2,3.9,1.4,7.8,3.4,11.1c3.1,5.2,8.2,10.3,14.3,11.6c6.9,1.4,15-1.1,19.3-6.9c4-5.3,4.9-12.8,0.9-18.4
			c-8.6-12.2-17.5-7.1-17.5-7.1c-6.3,3.6-8.6,10.9-2.4,16.1c1.9,1.5,3.4,1.1,5.5,0.3c3.6-1.3,4.8,1.9,4.8,1.9
			c1.1,3.2-1.5,5.4-1.5,5.4c-3.7,3.3-11,1.9-14.3-1.3c-4.8-4.7-8.4-11.8-5.4-18.5c2.6-6,9.4-9.7,15.8-10
			c12.3-0.6,22.5,10.5,22.5,22.5c0,0-0.1,18-17.6,21.2c-17.5,3.2-27.4-11.8-27.4-11.8s-11.4-13.4-1.5-31.1c0.7-1.2,1.5-2.4,2.3-3.5
			c5-6.3,12.9-10.2,20.9-10.7c8.9-0.5,17.4,3.6,23.7,9.5C93.3,46.9,97,63.9,89.9,77.3C82.6,91.2,65.8,97.2,51,94.4z"/>
		<path class="st0" d="M16.7,79.7L3.3,82.5l-1-5l8.6-4.9L1,71.5l-1-5l13.5-2.8l0.6,3.1L3.5,69l11.3,1.1l0.7,3.2l-9.9,5.5l10.6-2.2
			L16.7,79.7z"/>
		<path class="st0" d="M0.5,57.1l0.4-3l7.4,0.9c1.2,0.1,1.9,0.2,2.3,0.2c0.6-0.1,1.1-0.3,1.5-0.7c0.4-0.4,0.6-1.1,0.7-1.9
			c0.1-0.8,0-1.5-0.2-2c-0.3-0.5-0.6-0.8-1.1-0.9c-0.5-0.1-1.2-0.3-2.3-0.4l-7.5-0.9l0.4-3l7.2,0.9c1.6,0.2,2.8,0.4,3.4,0.7
			c0.7,0.2,1.2,0.6,1.6,1.1c0.4,0.5,0.7,1.1,0.9,1.9s0.2,1.7,0.1,2.9c-0.2,1.4-0.5,2.4-0.8,3.1c-0.4,0.7-0.9,1.2-1.4,1.6
			c-0.5,0.4-1.1,0.6-1.6,0.6c-0.8,0.1-2,0.1-3.5-0.1L0.5,57.1z"/>
		<path class="st0" d="M23.2,32.3l-10.1-9.3l6.6-7.1l1.7,1.6L17,22.2l2.2,2.1l4.1-4.4l1.7,1.6l-4.1,4.4l2.7,2.5l4.4-4.7l1.7,1.6
			L23.2,32.3z"/>
		<path class="st0" d="M26.3,11.1l2.4-1.4l3.9,6.4c0.6,1,1,1.6,1.3,1.9c0.4,0.4,0.9,0.7,1.4,0.7c0.6,0.1,1.2-0.1,1.8-0.5
			c0.7-0.4,1.1-0.9,1.3-1.3c0.2-0.5,0.2-0.9,0-1.4c-0.2-0.4-0.5-1.1-1.1-2.1l-3.9-6.5l2.4-1.4l3.7,6.2c0.9,1.4,1.4,2.4,1.6,3.1
			c0.2,0.7,0.3,1.3,0.2,1.9c-0.1,0.6-0.4,1.2-0.8,1.8c-0.4,0.6-1.1,1.2-2,1.7c-1.1,0.7-2.1,1.1-2.8,1.2c-0.7,0.1-1.4,0-2-0.2
			c-0.6-0.2-1.1-0.5-1.5-0.9c-0.6-0.6-1.2-1.5-2-2.8L26.3,11.1z"/>
		<path class="st0" d="M65.8,14.4l-3.4-0.1v-1.5c-0.4,0.6-0.9,1-1.4,1.3c-0.6,0.3-1.6,0.4-2.2,0.4c-1.1,0-2.1-0.5-2.9-1.4
			c-0.8-0.9-1.2-2.2-1.2-3.9c0-1.7,0.4-3,1.2-3.8c0.8-0.9,1.8-1.3,3-1.3c1.1,0,2.6,0.5,3.4,1.4V0l3.6,0.1V14.4z M57.5,9.1
			c0,1.1,0.2,1.8,0.5,2.3c0.5,0.7,1.1,1,1.9,1c0.6,0,1.2-0.3,1.7-0.8c0.5-0.5,0.7-1.3,0.7-2.3c0-1.1-0.2-2-0.7-2.5
			c-0.4-0.5-1-0.8-1.7-0.8c-0.7,0-1.2,0.2-1.7,0.7S57.5,8.1,57.5,9.1z"/>
		<path class="st0" d="M71.1,9.3c0.3-0.8,0.9-1.5,1.6-2.1c0.7-0.6,1.6-0.9,2.5-1c0.9-0.1,1.9,0.1,2.8,0.5c1.5,0.6,2.5,1.5,3.1,2.8
			c0.6,1.3,0.6,2.6,0,4c-0.6,1.4-1.5,2.4-2.8,2.9c-1.3,0.5-2.7,0.5-4.2-0.1c-0.9-0.4-1.7-0.9-2.3-1.6c-0.7-0.7-1-1.5-1.2-2.4
			C70.5,11.3,70.7,10.4,71.1,9.3z M73.7,10.5c-0.4,0.9-0.4,1.7-0.2,2.4c0.3,0.7,0.7,1.1,1.4,1.4c0.7,0.3,1.3,0.3,2,0
			c0.7-0.3,1.2-0.9,1.5-1.8c0.4-0.9,0.4-1.7,0.2-2.4c-0.3-0.7-0.7-1.1-1.4-1.4c-0.7-0.3-1.3-0.3-2,0C74.6,9,74.1,9.6,73.7,10.5z"/>
		<polygon class="st0" points="99.7,13.7 103.3,11.8 105.4,13.8 100.6,14.6 		"/>
		<rect x="88.8" y="19" transform="matrix(0.6694 -0.7429 0.7429 0.6694 16.2981 77.7725)" class="st0" width="13.5" height="3.2"/>
		
			<rect x="112.2" y="54.9" transform="matrix(9.528667e-03 -1 1 9.528667e-03 51.1023 174.918)" class="st0" width="3.2" height="13.5"/>
		<path class="st0" d="M94.9,30l11.2-7.9l2.5,3.4l-4.6,9.4l7.5-5.3l2,2.7l-11.2,7.9l-2.4-3.3l4.3-9.5l-7.3,5.2L94.9,30z"/>
		<path class="st0" d="M117.7,41.1l1.1,5.3c0.3,1.2,0.4,2.1,0.3,2.8c-0.1,0.9-0.3,1.7-0.8,2.4c-0.5,0.7-1.1,1.3-1.9,1.8
			s-1.8,0.9-3.1,1.2c-1.1,0.2-2.1,0.3-3,0.2c-1.1-0.2-2-0.5-2.7-1c-0.6-0.4-1.1-1-1.5-1.8c-0.3-0.6-0.6-1.4-0.8-2.5l-1.2-5.5
			L117.7,41.1z M116.1,44.5c0,0-8.9,1.9-8.9,1.9c0,0,0.5,2.3,0.6,2.5c0.3,0.9,0.8,1.7,1.6,2.2c1,0.7,2.2,0.6,3.3,0.4
			c1.2-0.2,2.5-0.8,3.3-1.7c1-1.2,0.7-2.6,0.4-4.1C116.4,45.8,116.1,44.5,116.1,44.5z"/>
		<path class="st0" d="M112.7,68.8c1.4,0.2,2.5,0.6,3.4,1.1c0.6,0.4,1.2,0.9,1.7,1.5c0.5,0.6,0.8,1.3,1,1.9c0.2,0.9,0.3,1.9,0.1,3
			c-0.3,2-1.1,3.5-2.5,4.6c-1.4,1-3.2,1.4-5.4,1.1c-2.2-0.3-3.8-1.1-4.9-2.5c-1.1-1.4-1.5-3-1.2-5c0.3-2,1.1-3.6,2.5-4.6
			C108.7,68.9,110.5,68.5,112.7,68.8z M112.4,72c-1.5-0.3-2.7-0.2-3.6,0.3c-0.9,0.5-1.4,1.2-1.6,2.2c-0.2,1,0.1,1.8,0.7,2.6
			s1.7,1.3,3.3,1.6c1.5,0.3,2.7,0.2,3.5-0.3c0.9-0.5,1.4-1.2,1.5-2.2c0.2-1,0-1.9-0.7-2.6C115,72.8,113.9,72.2,112.4,72z"/>
		<path class="st0" d="M17.3,105.1l8.9-10.5l7.2,6.1l-1.5,1.8l-5.1-4.3l-2.1,2.5l4.4,3.7l-1.5,1.8l-4.4-3.7l-3.8,4.5L17.3,105.1z"/>
		<path class="st0" d="M39.5,103.5l2.7,1.2l-3.1,6.8c-0.5,1.1-0.8,1.8-0.8,2.1c-0.1,0.6,0,1.1,0.3,1.6c0.3,0.5,0.8,0.9,1.6,1.3
			c0.8,0.3,1.4,0.5,1.9,0.3c0.5-0.1,0.9-0.4,1.2-0.8c0.3-0.4,0.6-1.1,1.1-2.1l3.1-6.9l2.7,1.2l-3,6.6c-0.7,1.5-1.2,2.5-1.6,3.1
			s-0.9,1-1.5,1.2c-0.6,0.3-1.3,0.4-2,0.3s-1.7-0.3-2.7-0.8c-1.3-0.6-2.2-1.1-2.7-1.7c-0.5-0.6-0.9-1.2-1.1-1.8s-0.2-1.2-0.1-1.7
			c0.1-0.8,0.5-1.9,1.2-3.3L39.5,103.5z"/>
		<path class="st0" d="M56.9,121.9v-13.7h2.8l5.9,9.2v-9.2h2.7v13.7h-2.9l-5.8-9v9H56.9z"/>
		<path class="st0" d="M92.2,113.7l-2.8,1.2l-2.3-2.4l-5,2.2l0.2,3.3l-2.7,1.2L79,104.5l2.7-1.2L92.2,113.7z M85.4,110.8l-3.8-3.9
			l0.3,5.4L85.4,110.8z"/>
		<path class="st0" d="M100.4,107.1l-9.6-9.9l2-1.9l9.6,9.9L100.4,107.1z"/>
		<circle class="st0" cx="16.2" cy="91.3" r="3.7"/>
		<circle class="st0" cx="106.7" cy="91.5" r="3.7"/>
		<g>
			<path class="st0" d="M14.3,42.5c0.7-0.6,2.2-2.4,2.6-3.7c0.5-1.3,0.2-2.2-0.7-2.5c-0.8-0.3-1.5,0.2-2.6,1.5
				c-1.5,1.9-3.2,2.9-5.1,2.2c-2.2-0.8-3.2-3.2-2.2-6.3c0.5-1.5,1.7-3.2,2.3-3.8l2.1,1.5c-0.4,0.4-1.6,2-2,3.2
				c-0.4,1.3-0.1,2.1,0.6,2.3c0.8,0.3,1.4-0.3,2.7-1.7c1.6-2,3.2-2.6,5-2c2.2,0.8,3.4,3.1,2.2,6.6c-0.5,1.5-2.1,3.5-2.8,4.1
				L14.3,42.5z"/>
		</g>
	</g>
</g>
<g id="Camada_3">
</g>
</svg>
