<?xml version="1.0" encoding="utf-8"?>
<!-- Generator: Adobe Illustrator 22.1.0, SVG Export Plug-In . SVG Version: 6.00 Build 0)  -->
<svg version="1.1" xmlns="http://www.w3.org/2000/svg" xmlns:xlink="http://www.w3.org/1999/xlink" x="0px" y="0px"
	 viewBox="0 0 163.7 111.1" style="enable-background:new 0 0 163.7 111.1;" xml:space="preserve">
<style type="text/css">
	.st0{fill:#FFFFFF;}
	.st1{font-family:'BellGothicStd-Black';}
	.st2{font-size:16.3163px;}
	.st3{letter-spacing:3;}
	.st4{font-size:11.437px;}
	.st5{letter-spacing:1;}
</style>
<g id="Camada_2">
</g>
<g id="Camada_3">
	<g>
		<text transform="matrix(1 0 0 1 0 106.9743)" class="st0 st1 st2 st3">Museu do Índio</text>
		<text transform="matrix(1 0 0 1 1.0273 89.0583)" class="st0 st1 st4 st5">Sociedade de Amigos do</text>
		<rect x="142.9" y="0.3" class="st0" width="15.4" height="71.5"/>
		<g>
			<g>
				<path class="st0" d="M95.5,71.8H79l-3.5-13.9H55.1l-3.6,13.9H41l2.1-1.4h7.4L54,56.4h22.6l3.5,13.9h13.5L73.8,1.7H56.3
					l-9.8,34.6l-1.1-1.2l9.8-34.8h19.7L95.5,71.8z M73.9,45.9H56.3l8-33.1h1.5L73.9,45.9z M58.2,44.5h13.9l-7-28.7L58.2,44.5z"/>
			</g>
		</g>
		<polygon class="st0" points="125.9,0.3 118.6,0.3 105.8,46.9 92.8,0.3 85.4,0.3 71.7,0.3 71.7,71.8 85.4,71.8 85.4,12.9 
			100.6,71.8 111.4,71.8 125.9,13.1 125.9,71.8 139.6,71.8 139.6,0.3 		"/>
		<path class="st0" d="M36.5,16.7c0,0,8.7-5.7,8.7-5.7S41.3,4,31.4,1c-4.1-1.2-8.6-1.3-12.8-0.4c-2.8,0.5-5.9,1.4-8.2,3.1
			c-5,3.7-8.2,9.1-8.1,15.4c0.1,6.8,3,12.7,8.7,16.5c0.4,0.3,0.9,0.6,1.3,0.8c1.6,0.8,3.2,1.6,4.8,2.4c5.8,2.7,13.4,3.5,17.5,9
			c1.7,2.2,2.2,5.2,1.6,7.9c-0.8,3.2-3.3,5.2-6.3,6.2c-1,0.3-2.1,0.6-3.2,0.7c0,0-8.2,1.6-13.6-5.3l-2.4-3.6c0,0-9.2,6.3-9.2,6.3
			c-0.1,0.1,1.7,2.7,1.8,2.8c1.6,2.1,3.4,4,5.6,5.5c5.7,4.1,13.6,4.5,20.3,3.7c2-0.3,4-0.7,5.8-1.4c4.4-1.7,8.4-4.7,10.6-9
			c2.7-5.4,3.4-12.6,0.8-18.2c-3.4-7.2-11-11-18.3-13.2c-4.4-1.4-9-2.2-12.3-5.8c-1.8-1.9-2.7-4.4-2.4-7c0.4-3.9,3.2-6.7,7-7.5
			c2.9-0.6,6-0.4,8.7,0.8c1.3,0.6,2.6,1.3,3.7,2.1C33.2,13,36.7,16.5,36.5,16.7z"/>
	</g>
</g>
</svg>
