<?xml version="1.0" encoding="utf-8"?>
<!-- Generator: Adobe Illustrator 22.1.0, SVG Export Plug-In . SVG Version: 6.00 Build 0)  -->
<svg version="1.1" id="Camada_1" xmlns="http://www.w3.org/2000/svg" xmlns:xlink="http://www.w3.org/1999/xlink" x="0px" y="0px"
	 viewBox="0 0 607.9 468.8" style="enable-background:new 0 0 607.9 468.8;" xml:space="preserve">
<style type="text/css">
	.st0{fill:#FFFFFF;}
</style>
<g>
	<g id="g3913_1_">
		<path id="path3022_1_" class="st0" d="M54.4,397.6h499.1v-20.9H54.4V397.6z"/>
		<path id="path3024_1_" class="st0" d="M26.2,433.2h554.5v-20.9H26.2V433.2z"/>
		<path id="path3026_1_" class="st0" d="M0,468.8h607.9v-20.9H0V468.8z"/>
		<path id="path3028_1_" class="st0" d="M54.4,137.1h499.1v-20.9H54.4V137.1z"/>
		<path id="path3030_1_" class="st0" d="M155.4,99.4L304,54.9l145.4,44.5h60.7L304,35.6L94.7,99.4"/>
		<path id="path3032_1_" class="st0" d="M54.4,99.4l248-75.9l251.1,75.9V76.9L304,0L54.4,76.9"/>
	</g>
	<g id="g3921_1_">
		<path id="path3034_1_" class="st0" d="M83.7,349c0,0,0,15.7,17.8,15.7c17.8,0,16.7-15.7,16.7-15.7V146h-13.1v203.5
			c0,0,0,3.7-4.7,3.7c-4.7,0-3.7-4.7-3.7-4.7V146H83.7"/>
		<path id="path3036_1_" class="st0" d="M165.8,364.7h10.5V239.1l13.1,125.6h11V146h-11v104.6L182.1,146h-16.2"/>
		<path id="path3038_1_" class="st0" d="M249,364.7h33.5v-11.5h-18.8v-98.9h14.1v-12h-14.1V157h14.1v-11H249"/>
		<path id="path3040_1_" class="st0" d="M441.5,210.9v-49.2c0,0-0.5-15.7-17.3-15.7c-16.7,0-16.7,15.7-16.7,15.7V349
			c0,0-0.5,15.7,16.7,15.7c17.3,0,17.3-15.7,17.3-15.7V294h-13.1V349c0,0,0,4.2-4.2,4.2c-3.9,0-4.7-4.2-4.7-4.2V161.7
			c0,0,0-4.7,4.7-4.7c4.2,0,4.2,4.7,4.2,4.7v49.2"/>
		<path id="path3042_1_" class="st0" d="M512.2,349c0,0,0.5,4.2-4.7,4.2c-5.2,0-5.2-4.2-5.2-4.2V161.7c0,0,0-4.7,4.7-4.7
			c5.2,0,5.2,4.7,5.2,4.7V349z M524.7,251.4v-89.7c0,0,1.1-15.7-17.3-15.7c-18.3,0-18.3,15.7-18.3,15.7V349c0,0,0,15.7,17.3,15.7
			c18.3,0,18.3-15.7,18.3-15.7v-68.9"/>
		<path id="path3044_1_" class="st0" d="M345.8,349c0,0,0,4.2-3.4,3.9c-3.4-0.3-3.4-3.9-3.4-3.9v-54.9h-13.6V349
			c0,0-0.5,15.7,16.7,15.7c17.3,0,17.3-15.7,17.3-15.7v-38.7c0,0,0,2.1,0-8.6c0-25.7-20.4-74.6-20.4-90.8c0-2.1,0-4.2,0-4.2v-45
			c0,0-0.5-4.7,3.1-4.7c3.7,0,3.7,4.7,3.7,4.7v49.2h13.6v-49.2c0,0,0.5-16.2-16.7-15.7c-17.3,0.5-17.3,15.7-17.3,15.7v41.9
			c0,27.5,20.4,73.8,20.4,95v5"/>
	</g>
</g>
</svg>
